<?xml version="1.0" encoding="UTF-8" standalone="no"?>
<!DOCTYPE svg PUBLIC "-//W3C//DTD SVG 1.1//EN" "http://www.w3.org/Graphics/SVG/1.1/DTD/svg11.dtd">
<svg version="1.1" xmlns="http://www.w3.org/2000/svg" xmlns:xlink="http://www.w3.org/1999/xlink" preserveAspectRatio="xMidYMid meet" viewBox="-0.9989216243655472 -0.996446700507633 83.68000000000004 54.00000000000001" width="79.68" height="50"><defs><path d="M36.22 0.01L36.32 0.01L36.41 0.02L36.51 0.02L36.61 0.03L36.7 0.04L36.8 0.05L36.9 0.06L36.99 0.08L37.09 0.09L37.19 0.11L37.28 0.13L37.38 0.15L37.47 0.17L37.57 0.19L37.66 0.22L37.76 0.24L37.85 0.27L37.95 0.3L38.04 0.33L38.14 0.36L38.23 0.4L38.32 0.43L38.42 0.47L38.51 0.51L38.6 0.55L38.69 0.59L38.78 0.63L38.87 0.68L38.96 0.72L39.05 0.77L39.14 0.82L39.23 0.87L39.32 0.92L39.41 0.97L39.49 1.03L39.58 1.09L39.67 1.15L39.75 1.21L39.83 1.26L39.93 1.35L40.07 1.46L40.23 1.6L40.42 1.76L40.64 1.95L40.88 2.16L41.15 2.4L41.44 2.66L41.76 2.94L42.09 3.25L42.45 3.57L42.83 3.92L43.23 4.29L43.65 4.67L44.09 5.08L44.55 5.5L45.02 5.94L45.51 6.4L46.01 6.87L46.53 7.36L47.06 7.86L47.6 8.38L48.16 8.91L48.72 9.46L49.3 10.02L49.88 10.58L50.48 11.16L51.08 11.76L51.68 12.36L52.3 12.97L52.91 13.58L53.54 14.21L54.16 14.84L54.79 15.48L55.42 16.13L56.05 16.78L56.68 17.44L57.31 18.1L57.94 18.76L57.99 18.81L58.03 18.86L58.08 18.91L58.12 18.96L58.17 19.01L58.21 19.06L58.25 19.11L58.29 19.16L58.33 19.22L58.37 19.27L58.41 19.32L58.45 19.37L58.49 19.43L58.53 19.48L58.56 19.53L58.6 19.59L58.64 19.64L58.67 19.69L58.71 19.75L58.74 19.8L58.77 19.86L58.81 19.92L58.84 19.97L58.87 20.03L58.9 20.08L58.93 20.14L58.96 20.2L58.99 20.25L59.02 20.31L59.05 20.37L59.07 20.43L59.1 20.48L59.13 20.54L59.15 20.6L59.18 20.66L59.2 20.72L59.22 20.78L59.25 20.83L59.27 20.89L59.29 20.95L59.3 20.96L59.3 20.97L59.31 20.97L59.32 20.98L59.33 21L59.35 21.03L59.36 21.03L59.36 21.04L59.36 21.04L59.37 21.04L59.37 21.05L59.37 21.05L59.38 21.06L59.38 21.06L59.39 21.07L59.4 21.09L59.4 21.09L60.39 22.65L60.95 23.54L61.48 24.4L62 25.22L62.5 26.01L62.99 26.77L63.46 27.5L63.91 28.2L64.35 28.88L64.77 29.53L65.19 30.16L65.59 30.77L65.99 31.35L66.38 31.91L66.76 32.45L67.14 32.98L67.51 33.48L67.88 33.97L68.24 34.45L68.61 34.91L68.97 35.36L69.34 35.79L69.71 36.22L70.08 36.63L70.46 37.04L70.85 37.44L71.24 37.84L71.64 38.22L72.05 38.61L72.47 38.99L72.9 39.37L73.34 39.75L73.8 40.14L74.27 40.52L74.76 40.9L75.27 41.29L75.8 41.69L76.34 42.09L76.91 42.5L77.5 42.92L78.11 43.34L78.23 43.43L78.35 43.53L78.46 43.62L78.57 43.72L78.67 43.83L78.77 43.93L78.86 44.04L78.95 44.16L79.04 44.27L79.11 44.39L79.19 44.51L79.26 44.64L79.32 44.76L79.38 44.89L79.43 45.02L79.48 45.15L79.52 45.29L79.56 45.42L79.6 45.56L79.62 45.7L79.65 45.83L79.66 45.97L79.67 46.11L79.68 46.25L79.68 46.39L79.68 46.54L79.67 46.68L79.65 46.82L79.63 46.96L79.6 47.1L79.57 47.24L79.53 47.38L79.49 47.51L79.44 47.65L79.39 47.78L79.33 47.92L79.26 48.05L79.19 48.18L79.11 48.31L79.03 48.43L78.97 48.51L78.92 48.58L78.86 48.66L78.8 48.73L78.74 48.79L78.68 48.86L78.62 48.93L78.55 48.99L78.49 49.05L78.42 49.11L78.35 49.17L78.28 49.22L78.21 49.28L78.14 49.33L78.07 49.38L78 49.43L77.92 49.47L77.85 49.52L77.77 49.56L77.69 49.6L77.61 49.64L77.54 49.68L77.46 49.71L77.38 49.75L77.29 49.78L77.21 49.81L77.13 49.83L77.05 49.86L76.96 49.88L76.88 49.9L76.8 49.92L76.71 49.94L76.63 49.95L76.54 49.97L76.45 49.98L76.37 49.99L76.28 49.99L76.2 50L76.11 50L76.02 50L75.97 50L75.91 50L75.86 50L75.81 50L75.75 49.99L75.7 49.99L75.65 49.98L75.59 49.98L75.54 49.97L75.48 49.96L75.43 49.96L75.38 49.95L75.32 49.94L75.27 49.93L75.22 49.91L75.16 49.9L75.11 49.89L75.06 49.87L75 49.86L74.95 49.84L74.9 49.83L74.85 49.81L74.8 49.79L74.74 49.77L74.69 49.75L74.64 49.73L74.59 49.71L74.54 49.69L74.49 49.67L74.44 49.64L74.39 49.62L74.34 49.59L74.29 49.56L74.24 49.54L74.19 49.51L74.14 49.48L74.09 49.45L74.04 49.42L73.99 49.39L73.95 49.36L73.43 49L72.93 48.65L72.45 48.3L71.98 47.96L71.52 47.62L71.07 47.28L70.63 46.95L70.2 46.62L69.79 46.29L69.38 45.97L68.99 45.64L68.6 45.32L68.22 45L67.85 44.67L67.49 44.35L67.14 44.03L66.79 43.71L66.45 43.38L66.11 43.05L65.78 42.73L65.46 42.39L65.14 42.06L64.82 41.72L64.51 41.38L64.21 41.03L63.9 40.68L63.6 40.33L63.3 39.96L63 39.6L62.7 39.22L62.4 38.84L62.1 38.46L61.8 38.06L61.51 37.66L61.21 37.25L60.9 36.83L60.6 36.4L60.29 35.96L59.98 35.51L59.67 35.05L59.58 34.92L59.49 34.79L59.4 34.65L59.31 34.52L59.22 34.39L59.13 34.25L59.04 34.11L58.95 33.98L58.86 33.84L58.77 33.7L58.67 33.56L58.58 33.42L58.49 33.27L58.39 33.13L58.3 32.99L58.21 32.84L58.11 32.7L58.01 32.55L57.92 32.4L57.82 32.25L57.72 32.1L57.63 31.95L57.53 31.8L57.43 31.64L57.33 31.49L57.23 31.33L57.13 31.18L57.03 31.02L56.93 30.86L56.82 30.7L56.72 30.54L56.62 30.37L56.51 30.21L56.41 30.05L56.3 29.88L56.2 29.71L56.09 29.54L55.98 29.37L55.87 29.2L55.77 29.03L55.71 29.05L55.65 29.08L55.59 29.1L55.53 29.12L55.47 29.15L55.41 29.17L55.35 29.19L55.29 29.21L55.22 29.23L55.16 29.25L55.1 29.27L55.04 29.29L54.98 29.3L54.92 29.32L54.86 29.34L54.8 29.35L54.73 29.37L54.67 29.38L54.61 29.4L54.55 29.41L54.49 29.42L54.42 29.43L54.36 29.45L54.3 29.46L54.24 29.47L54.17 29.48L54.11 29.49L54.05 29.49L53.99 29.5L53.92 29.51L53.86 29.51L53.8 29.52L53.73 29.53L53.67 29.53L53.61 29.53L53.54 29.54L53.48 29.54L53.42 29.54L53.35 29.54L53.29 29.54L53.18 29.54L53.06 29.54L52.94 29.53L52.83 29.52L52.71 29.51L52.6 29.5L52.48 29.49L52.37 29.47L52.26 29.45L52.14 29.43L52.03 29.41L51.92 29.39L51.8 29.36L51.69 29.33L51.58 29.3L51.47 29.27L51.36 29.23L51.25 29.19L51.14 29.15L51.03 29.11L50.92 29.07L50.81 29.02L50.7 28.98L50.6 28.93L50.49 28.87L50.39 28.82L50.28 28.77L50.18 28.71L50.08 28.65L49.98 28.59L49.88 28.52L49.78 28.46L49.68 28.39L49.58 28.32L49.48 28.25L49.39 28.17L49.29 28.1L49.2 28.02L49.11 27.94L49.01 27.86L49 27.85L49 27.84L48.99 27.83L48.98 27.82L48.97 27.82L48.96 27.81L48.95 27.8L48.94 27.79L48.92 27.78L48.91 27.77L48.9 27.76L48.88 27.75L48.83 27.71L48.81 27.69L48.8 27.68L48.79 27.68L48.78 27.67L48.77 27.65L48.76 27.64L48.75 27.64L48.74 27.63L48.73 27.62L48.72 27.61L48.71 27.6L48.7 27.6L48.69 27.59L48.68 27.58L48.67 27.57L48.66 27.56L48.65 27.55L48.65 27.54L48.64 27.53L48.24 27.11L47.84 26.69L47.44 26.27L47.04 25.86L46.64 25.44L46.25 25.03L45.85 24.63L45.45 24.22L45.06 23.82L44.66 23.42L44.27 23.02L43.88 22.63L43.49 22.24L43.1 21.86L42.72 21.47L42.34 21.1L41.96 20.72L41.59 20.36L41.22 19.99L40.85 19.63L40.48 19.28L40.12 18.93L39.77 18.59L39.42 18.25L39.07 17.92L38.73 17.59L38.4 17.27L38.07 16.96L37.74 16.65L37.43 16.35L37.11 16.06L36.81 15.77L36.51 15.49L36.22 15.22L35.93 14.95L35.65 14.69L35.38 14.44L35.12 14.2L34.87 13.97L34.62 13.74L34.46 14.02L34.3 14.3L34.14 14.58L33.98 14.86L33.82 15.13L33.67 15.4L33.52 15.67L33.37 15.94L33.22 16.2L33.07 16.46L32.93 16.72L32.78 16.97L32.64 17.22L32.5 17.47L32.36 17.72L32.23 17.97L32.09 18.21L31.96 18.45L31.83 18.69L31.7 18.93L31.57 19.16L31.44 19.39L31.32 19.62L31.19 19.85L31.07 20.07L30.95 20.3L30.83 20.52L30.71 20.74L30.59 20.95L30.47 21.17L30.36 21.38L30.25 21.59L30.13 21.8L30.02 22.01L29.91 22.21L29.8 22.42L29.69 22.62L29.59 22.82L29.48 23.02L29.38 23.21L28.98 23.95L28.6 24.66L28.23 25.34L27.87 26.01L27.51 26.67L27.16 27.3L26.81 27.92L26.46 28.53L26.11 29.12L25.76 29.7L25.41 30.28L25.06 30.84L24.7 31.4L24.33 31.95L23.96 32.5L23.57 33.04L23.18 33.58L22.77 34.12L22.34 34.66L21.9 35.21L21.44 35.76L20.97 36.31L20.47 36.87L19.95 37.43L19.41 38.01L18.84 38.59L18.24 39.19L17.62 39.8L16.97 40.42L16.29 41.06L15.57 41.71L14.82 42.39L14.04 43.08L13.22 43.79L12.36 44.53L11.46 45.29L10.52 46.08L9.53 46.89L8.5 47.72L7.43 48.59L7.36 48.64L7.3 48.69L7.23 48.74L7.17 48.78L7.1 48.83L7.04 48.87L6.97 48.91L6.9 48.96L6.83 49L6.77 49.03L6.7 49.07L6.63 49.11L6.56 49.14L6.49 49.18L6.42 49.21L6.35 49.24L6.28 49.27L6.2 49.3L6.13 49.32L6.06 49.35L5.99 49.37L5.91 49.4L5.84 49.42L5.77 49.44L5.69 49.46L5.62 49.48L5.55 49.49L5.47 49.51L5.4 49.52L5.32 49.54L5.25 49.55L5.17 49.56L5.1 49.57L5.02 49.58L4.95 49.58L4.87 49.59L4.8 49.59L4.72 49.6L4.65 49.6L4.57 49.6L4.47 49.6L4.37 49.59L4.27 49.59L4.17 49.58L4.07 49.57L3.97 49.56L3.87 49.54L3.77 49.53L3.68 49.51L3.58 49.49L3.48 49.47L3.38 49.44L3.29 49.41L3.19 49.38L3.09 49.35L3 49.32L2.91 49.28L2.81 49.25L2.72 49.21L2.63 49.16L2.54 49.12L2.45 49.07L2.36 49.03L2.27 48.98L2.18 48.92L2.09 48.87L2.01 48.81L1.92 48.75L1.84 48.69L1.76 48.63L1.68 48.57L1.6 48.5L1.52 48.43L1.44 48.36L1.37 48.29L1.29 48.21L1.22 48.13L1.15 48.05L1.08 47.97L1.01 47.89L0.89 47.74L0.79 47.59L0.69 47.43L0.59 47.28L0.5 47.11L0.42 46.95L0.35 46.79L0.29 46.62L0.23 46.45L0.17 46.28L0.13 46.11L0.09 45.93L0.06 45.76L0.03 45.59L0.02 45.41L0.01 45.24L0 45.06L0 44.88L0.01 44.71L0.03 44.53L0.05 44.36L0.08 44.19L0.11 44.02L0.16 43.85L0.21 43.68L0.26 43.51L0.32 43.34L0.39 43.18L0.47 43.02L0.55 42.86L0.63 42.71L0.73 42.56L0.83 42.41L0.94 42.26L1.05 42.12L1.17 41.98L1.29 41.85L1.43 41.72L1.56 41.59L1.71 41.47L2.68 40.69L3.6 39.94L4.49 39.21L5.33 38.51L6.14 37.84L6.91 37.18L7.64 36.55L8.34 35.94L9.01 35.34L9.65 34.77L10.25 34.21L10.83 33.66L11.39 33.13L11.91 32.61L12.41 32.1L12.89 31.6L13.35 31.11L13.79 30.62L14.21 30.14L14.62 29.66L15 29.19L15.38 28.71L15.74 28.24L16.09 27.77L16.43 27.29L16.76 26.81L17.09 26.32L17.41 25.83L17.72 25.33L18.04 24.82L18.35 24.3L18.66 23.76L18.97 23.21L19.29 22.65L19.61 22.08L19.94 21.48L20.27 20.87L20.61 20.23L20.96 19.58L21.33 18.9L21.48 18.61L21.64 18.32L21.8 18.03L21.96 17.73L22.12 17.42L22.28 17.12L22.45 16.81L22.62 16.49L22.79 16.18L22.97 15.85L23.15 15.53L23.33 15.19L23.51 14.86L23.7 14.52L23.89 14.17L24.08 13.82L24.28 13.46L24.48 13.1L24.68 12.74L24.89 12.37L25.1 11.99L25.32 11.61L25.54 11.22L25.76 10.83L25.99 10.43L26.22 10.03L26.45 9.62L26.69 9.2L26.94 8.78L27.19 8.36L27.44 7.92L27.7 7.48L27.96 7.04L28.23 6.58L28.5 6.12L28.78 5.66L29.07 5.18L29.36 4.71L29.65 4.22L29.95 3.73L29.97 3.7L29.98 3.67L30 3.64L30.02 3.61L30.04 3.59L30.06 3.56L30.08 3.53L30.1 3.5L30.11 3.48L30.13 3.45L30.15 3.43L30.17 3.4L30.19 3.37L30.21 3.35L30.23 3.32L30.25 3.3L30.27 3.27L30.29 3.25L30.32 3.22L30.34 3.2L30.36 3.17L30.38 3.15L30.4 3.13L30.42 3.1L30.44 3.08L30.47 3.06L30.49 3.03L30.51 3.01L30.53 2.99L30.56 2.96L30.58 2.94L30.6 2.92L30.62 2.9L30.65 2.87L30.67 2.85L30.69 2.83L30.72 2.81L30.74 2.79L30.76 2.76L30.79 2.74L30.79 2.73L30.79 2.73L30.8 2.72L30.8 2.71L30.81 2.7L30.82 2.69L30.82 2.68L30.82 2.67L30.83 2.66L30.92 2.54L31.02 2.41L31.12 2.29L31.23 2.17L31.33 2.05L31.44 1.94L31.55 1.83L31.66 1.72L31.77 1.62L31.89 1.52L32.01 1.42L32.13 1.32L32.25 1.23L32.37 1.14L32.5 1.06L32.63 0.98L32.75 0.9L32.88 0.82L33.02 0.75L33.15 0.68L33.29 0.62L33.42 0.55L33.56 0.5L33.7 0.44L33.84 0.39L33.98 0.34L34.12 0.29L34.26 0.25L34.41 0.21L34.55 0.18L34.7 0.14L34.84 0.11L34.99 0.09L35.13 0.07L35.28 0.05L35.43 0.03L35.58 0.02L35.73 0.01L35.88 0.01L36.03 0L36.12 0L36.22 0.01ZM48.78 29.99L49.47 30.4L50.18 30.74L50.93 31.01L51.7 31.2L52.49 31.32L53.29 31.36L53.5 31.36L53.71 31.35L53.93 31.34L54.14 31.32L54.35 31.29L54.56 31.26L54.77 31.22L54.97 31.18L55.52 32.04L56.05 32.87L56.57 33.67L57.07 34.44L57.57 35.19L58.05 35.91L58.52 36.61L58.99 37.29L58.93 37.41L58.86 37.54L58.79 37.67L58.73 37.79L58.65 37.92L58.58 38.04L58.5 38.16L58.42 38.28L57.45 39.37L56.32 40.23L55.07 40.83L53.73 41.18L52.36 41.27L50.98 41.09L49.64 40.64L48.38 39.91L47.29 38.95L46.44 37.82L45.83 36.56L45.48 35.23L45.39 33.85L45.57 32.47L46.02 31.13L46.75 29.87L46.84 29.75L46.93 29.63L47.03 29.52L47.13 29.41L47.23 29.3L47.33 29.19L47.44 29.09L47.54 28.98L48.14 29.52L48.78 29.99Z" id="b296t0CwVo"></path></defs><g><g><use xlink:href="#b296t0CwVo" opacity="1" fill="#6f7577" fill-opacity="1"></use><g><use xlink:href="#b296t0CwVo" opacity="1" fill-opacity="0" stroke="#000000" stroke-width="1" stroke-opacity="0"></use></g></g></g></svg>